ply
format ascii 1.0
comment Created by Blender 2.82 (sub 7) - www.blender.org, source file: ''
element vertex 96
property float x
property float y
property float z
element face 64
property list uchar uint vertex_indices
end_header
-0.195090 0.980785 0.000000
0.000000 1.000000 0.000000
0.000000 1.000000 0.000000
-0.195090 0.980785 0.000000
-0.382683 0.923880 0.000000
-0.382683 0.923880 0.000000
-0.555570 0.831470 0.000000
-0.555570 0.831470 0.000000
-0.707107 0.707107 0.000000
-0.707107 0.707107 0.000000
-0.831470 0.555570 0.000000
-0.831470 0.555570 0.000000
-0.923880 0.382683 0.000000
-0.923880 0.382683 0.000000
-0.980785 0.195090 0.000000
-0.980785 0.195090 0.000000
-1.000000 0.000000 0.000000
-1.000000 0.000000 0.000000
-0.980785 -0.195090 0.000000
-0.980785 -0.195090 0.000000
-0.923880 -0.382683 0.000000
-0.923880 -0.382683 0.000000
-0.831470 -0.555570 0.000000
-0.831470 -0.555570 0.000000
-0.707107 -0.707107 0.000000
-0.707107 -0.707107 0.000000
-0.555570 -0.831470 0.000000
-0.555570 -0.831470 0.000000
-0.382683 -0.923880 0.000000
-0.382683 -0.923880 0.000000
-0.195090 -0.980785 0.000000
-0.195090 -0.980785 0.000000
0.000000 -1.000000 0.000000
0.000000 -1.000000 0.000000
0.195091 -0.980785 0.000000
0.195091 -0.980785 0.000000
0.382684 -0.923879 0.000000
0.382684 -0.923879 0.000000
0.555571 -0.831469 0.000000
0.555571 -0.831469 0.000000
0.707107 -0.707106 0.000000
0.707107 -0.707106 0.000000
0.831470 -0.555570 0.000000
0.831470 -0.555570 0.000000
0.923880 -0.382683 0.000000
0.923880 -0.382683 0.000000
0.980785 -0.195089 0.000000
0.980785 -0.195089 0.000000
1.000000 0.000001 0.000000
1.000000 0.000001 0.000000
0.980785 0.195091 0.000000
0.980785 0.195091 0.000000
0.923879 0.382684 0.000000
0.923879 0.382684 0.000000
0.831469 0.555571 0.000000
0.831469 0.555571 0.000000
0.707106 0.707108 0.000000
0.707106 0.707108 0.000000
0.555569 0.831470 0.000000
0.555569 0.831470 0.000000
0.382682 0.923880 0.000000
0.382682 0.923880 0.000000
0.195089 0.980786 0.000000
0.195089 0.980786 0.000000
-0.097073 0.488020 0.000000
0.000000 0.497581 0.000000
-0.190416 0.459705 0.000000
-0.276441 0.413723 0.000000
-0.351843 0.351843 0.000000
-0.413723 0.276441 0.000000
-0.459705 0.190416 0.000000
-0.488020 0.097073 0.000000
-0.497581 -0.000000 0.000000
-0.488020 -0.097073 0.000000
-0.459705 -0.190416 0.000000
-0.413723 -0.276441 0.000000
-0.351843 -0.351843 0.000000
-0.276441 -0.413723 0.000000
-0.190416 -0.459705 0.000000
-0.097073 -0.488020 0.000000
0.000000 -0.497581 0.000000
0.097073 -0.488020 0.000000
0.190416 -0.459704 0.000000
0.276441 -0.413723 0.000000
0.351843 -0.351842 0.000000
0.413723 -0.276441 0.000000
0.459705 -0.190416 0.000000
0.488020 -0.097073 0.000000
0.497581 0.000001 0.000000
0.488020 0.097074 0.000000
0.459704 0.190416 0.000000
0.413723 0.276442 0.000000
0.351842 0.351843 0.000000
0.276440 0.413724 0.000000
0.190415 0.459705 0.000000
0.097072 0.488020 0.000000
4 0 1 2 3
4 4 0 3 5
4 6 4 5 7
4 8 6 7 9
4 10 8 9 11
4 12 10 11 13
4 14 12 13 15
4 16 14 15 17
4 18 16 17 19
4 20 18 19 21
4 22 20 21 23
4 24 22 23 25
4 26 24 25 27
4 28 26 27 29
4 30 28 29 31
4 32 30 31 33
4 34 32 33 35
4 36 34 35 37
4 38 36 37 39
4 40 38 39 41
4 42 40 41 43
4 44 42 43 45
4 46 44 45 47
4 48 46 47 49
4 50 48 49 51
4 52 50 51 53
4 54 52 53 55
4 56 54 55 57
4 58 56 57 59
4 60 58 59 61
4 62 60 61 63
4 1 62 63 2
4 64 65 1 0
4 66 64 0 4
4 67 66 4 6
4 68 67 6 8
4 69 68 8 10
4 70 69 10 12
4 71 70 12 14
4 72 71 14 16
4 73 72 16 18
4 74 73 18 20
4 75 74 20 22
4 76 75 22 24
4 77 76 24 26
4 78 77 26 28
4 79 78 28 30
4 80 79 30 32
4 81 80 32 34
4 82 81 34 36
4 83 82 36 38
4 84 83 38 40
4 85 84 40 42
4 86 85 42 44
4 87 86 44 46
4 88 87 46 48
4 89 88 48 50
4 90 89 50 52
4 91 90 52 54
4 92 91 54 56
4 93 92 56 58
4 94 93 58 60
4 95 94 60 62
4 65 95 62 1
